<svg width="1200" height="280" viewBox="0 0 1200 280" fill="none" xmlns="http://www.w3.org/2000/svg" role="img" aria-labelledby="title desc">
  <title id="title">Mitchell Lester profile banner</title>
  <desc id="desc">Editorial GitHub profile banner with Mitchell Lester's name, a short personal product-focused subtitle, and a large Bloom Coffee storefront photo panel.</desc>
  <defs>
    <linearGradient id="paperGlow" x1="90" y1="18" x2="1110" y2="262" gradientUnits="userSpaceOnUse">
      <stop stop-color="#FFF9F1"/>
      <stop offset="1" stop-color="#F1E6D4"/>
    </linearGradient>
    <linearGradient id="photoShade" x1="875" y1="18" x2="875" y2="262" gradientUnits="userSpaceOnUse">
      <stop stop-color="#09110D" stop-opacity="0.10"/>
      <stop offset="0.62" stop-color="#09110D" stop-opacity="0.28"/>
      <stop offset="1" stop-color="#09110D" stop-opacity="0.56"/>
    </linearGradient>
    <filter id="shadow" x="54" y="0" width="1092" height="280" filterUnits="userSpaceOnUse" color-interpolation-filters="sRGB">
      <feFlood flood-opacity="0" result="BackgroundImageFix"/>
      <feColorMatrix in="SourceAlpha" type="matrix" values="0 0 0 0 0 0 0 0 0 0 0 0 0 0 0 0 0 0 127 0" result="hardAlpha"/>
      <feOffset dy="14"/>
      <feGaussianBlur stdDeviation="18"/>
      <feComposite in2="hardAlpha" operator="out"/>
      <feColorMatrix type="matrix" values="0 0 0 0 0.0862745 0 0 0 0 0.133333 0 0 0 0 0.105882 0 0 0 0.14 0"/>
      <feBlend mode="normal" in2="BackgroundImageFix" result="effect1_dropShadow_1_1"/>
      <feBlend mode="normal" in="SourceGraphic" in2="effect1_dropShadow_1_1" result="shape"/>
    </filter>
    <clipPath id="photoClip">
      <rect x="660" y="18" width="450" height="244" rx="30"/>
    </clipPath>
  </defs>

  <rect width="1200" height="280" fill="#F5EFE4"/>
  <circle cx="1085" cy="34" r="110" fill="#E9DDCC"/>
  <circle cx="72" cy="244" r="88" fill="#EFE1CF"/>

  <g opacity="0.45">
    <path d="M74 46H770" stroke="#D5C5B0"/>
    <path d="M74 94H770" stroke="#D5C5B0"/>
    <path d="M74 142H770" stroke="#D5C5B0"/>
    <path d="M74 190H770" stroke="#D5C5B0"/>
    <path d="M74 238H770" stroke="#D5C5B0"/>
    <path d="M164 18V262" stroke="#D5C5B0"/>
    <path d="M344 18V262" stroke="#D5C5B0"/>
    <path d="M524 18V262" stroke="#D5C5B0"/>
    <path d="M704 18V262" stroke="#D5C5B0"/>
  </g>

  <g filter="url(#shadow)">
    <rect x="90" y="18" width="1020" height="244" rx="30" fill="url(#paperGlow)"/>
    <g clip-path="url(#photoClip)">
      <rect x="660" y="18" width="450" height="244" fill="#101814"/>
      <image href="./bloom-panel-mincrop.jpg" x="660" y="18" width="450" height="244" preserveAspectRatio="none"/>
      <rect x="660" y="18" width="450" height="244" fill="url(#photoShade)"/>
    </g>
  </g>

  <rect x="660.5" y="18.5" width="449" height="243" rx="29.5" stroke="rgba(248,243,232,0.18)"/>

  <rect x="148" y="58" width="190" height="34" rx="17" fill="#16221B"/>
  <text x="178" y="80" fill="#F8F3E8" font-family="Arial, Helvetica, sans-serif" font-size="15" letter-spacing="1.5">GITHUB PROFILE</text>

  <text x="148" y="150" fill="#16221B" font-family="Georgia, 'Times New Roman', serif" font-size="60" font-weight="700">Mitchell Lester</text>
  <text x="148" y="192" fill="#44524D" font-family="Arial, Helvetica, sans-serif" font-size="27">Building products I care about.</text>

  <rect x="148" y="214" width="348" height="20" rx="10" fill="#E6D9C8"/>
  <rect x="148" y="214" width="216" height="20" rx="10" fill="#C66B38"/>

  <rect x="688" y="42" width="126" height="30" rx="15" fill="rgba(9,17,13,0.70)"/>
  <text x="713" y="61" fill="#F8F3E8" font-family="Arial, Helvetica, sans-serif" font-size="13" letter-spacing="1.6">BLOOM COFFEE</text>
  <text x="688" y="228" fill="#F8F3E8" font-family="Arial, Helvetica, sans-serif" font-size="18" letter-spacing="0.2">Still part of the story.</text>
</svg>
