<svg width="1200" height="360" viewBox="0 0 1200 360" fill="none" xmlns="http://www.w3.org/2000/svg" role="img" aria-labelledby="title desc">
  <title id="title">Lester profile banner</title>
  <desc id="desc">Warm editorial banner with the name Mitchell Lester, a short full-stack subtitle, and a Bloom Coffee storefront photo worked into the right panel.</desc>
  <defs>
    <linearGradient id="paperGlow" x1="130" y1="40" x2="1040" y2="320" gradientUnits="userSpaceOnUse">
      <stop stop-color="#FFF9F1"/>
      <stop offset="1" stop-color="#F1E6D4"/>
    </linearGradient>
    <linearGradient id="photoShade" x1="889" y1="56" x2="889" y2="288" gradientUnits="userSpaceOnUse">
      <stop stop-color="#09110D" stop-opacity="0.12"/>
      <stop offset="0.65" stop-color="#09110D" stop-opacity="0.32"/>
      <stop offset="1" stop-color="#09110D" stop-opacity="0.62"/>
    </linearGradient>
    <filter id="shadow" x="86" y="26" width="1038" height="308" filterUnits="userSpaceOnUse" color-interpolation-filters="sRGB">
      <feFlood flood-opacity="0" result="BackgroundImageFix"/>
      <feColorMatrix in="SourceAlpha" type="matrix" values="0 0 0 0 0 0 0 0 0 0 0 0 0 0 0 0 0 0 127 0" result="hardAlpha"/>
      <feOffset dy="16"/>
      <feGaussianBlur stdDeviation="22"/>
      <feComposite in2="hardAlpha" operator="out"/>
      <feColorMatrix type="matrix" values="0 0 0 0 0.0862745 0 0 0 0 0.133333 0 0 0 0 0.105882 0 0 0 0.16 0"/>
      <feBlend mode="normal" in2="BackgroundImageFix" result="effect1_dropShadow_1_1"/>
      <feBlend mode="normal" in="SourceGraphic" in2="effect1_dropShadow_1_1" result="shape"/>
    </filter>
    <clipPath id="photoClip">
      <rect x="708" y="56" width="362" height="232" rx="30" />
    </clipPath>
  </defs>

  <rect width="1200" height="360" fill="#EEE4D5"/>
  <path d="M0 0H1200V360H0V0Z" fill="#F5EFE4"/>
  <circle cx="1072" cy="61" r="121" fill="#E9DDCC"/>
  <circle cx="137" cy="322" r="162" fill="#EFE1CF"/>

  <g opacity="0.5">
    <path d="M92 70H718" stroke="#D5C5B0"/>
    <path d="M92 118H718" stroke="#D5C5B0"/>
    <path d="M92 166H718" stroke="#D5C5B0"/>
    <path d="M92 214H718" stroke="#D5C5B0"/>
    <path d="M92 262H718" stroke="#D5C5B0"/>
    <path d="M182 34V292" stroke="#D5C5B0"/>
    <path d="M362 34V292" stroke="#D5C5B0"/>
    <path d="M542 34V292" stroke="#D5C5B0"/>
    <path d="M722 34V292" stroke="#D5C5B0"/>
  </g>

  <g filter="url(#shadow)">
    <rect x="130" y="56" width="940" height="232" rx="30" fill="url(#paperGlow)"/>
    <g clip-path="url(#photoClip)">
      <rect x="708" y="56" width="362" height="232" fill="#101814"/>
      <image href="./bloom-panel.jpg" x="708" y="56" width="362" height="232" preserveAspectRatio="xMidYMid slice"/>
      <rect x="708" y="56" width="362" height="232" fill="url(#photoShade)"/>
    </g>
  </g>

  <rect x="708.5" y="56.5" width="361" height="231" rx="29.5" stroke="rgba(248,243,232,0.16)"/>

  <rect x="178" y="96" width="192" height="34" rx="17" fill="#16221B"/>
  <text x="207" y="118" fill="#F8F3E8" font-family="Arial, Helvetica, sans-serif" font-size="15" letter-spacing="1.5">GITHUB PROFILE</text>

  <text x="178" y="188" fill="#16221B" font-family="Georgia, 'Times New Roman', serif" font-size="58" font-weight="700">Mitchell Lester</text>
  <text x="178" y="226" fill="#44524D" font-family="Arial, Helvetica, sans-serif" font-size="26">Building full-stack products and integrations.</text>

  <rect x="178" y="246" width="320" height="20" rx="10" fill="#E6D9C8"/>
  <rect x="178" y="246" width="198" height="20" rx="10" fill="#C66B38"/>

  <rect x="734" y="84" width="126" height="30" rx="15" fill="rgba(9,17,13,0.68)"/>
  <text x="759" y="103" fill="#F8F3E8" font-family="Arial, Helvetica, sans-serif" font-size="13" letter-spacing="1.6">BLOOM COFFEE</text>

  <text x="736" y="248" fill="#F8F3E8" font-family="Arial, Helvetica, sans-serif" font-size="16" letter-spacing="0.2">Coffee roots.</text>
</svg>
