<svg width="1200" height="360" viewBox="0 0 1200 360" fill="none" xmlns="http://www.w3.org/2000/svg" role="img" aria-labelledby="title desc">
  <title id="title">Lester profile banner</title>
  <desc id="desc">Warm editorial banner with the name Lester and a short description about building calm, operator-friendly AI systems.</desc>
  <defs>
    <linearGradient id="paperGlow" x1="130" y1="40" x2="1040" y2="320" gradientUnits="userSpaceOnUse">
      <stop stop-color="#FFF9F1"/>
      <stop offset="1" stop-color="#F1E6D4"/>
    </linearGradient>
    <linearGradient id="panelGlow" x1="767" y1="56" x2="1093" y2="304" gradientUnits="userSpaceOnUse">
      <stop stop-color="#224E42"/>
      <stop offset="1" stop-color="#16221B"/>
    </linearGradient>
    <filter id="shadow" x="86" y="26" width="1038" height="308" filterUnits="userSpaceOnUse" color-interpolation-filters="sRGB">
      <feFlood flood-opacity="0" result="BackgroundImageFix"/>
      <feColorMatrix in="SourceAlpha" type="matrix" values="0 0 0 0 0 0 0 0 0 0 0 0 0 0 0 0 0 0 127 0" result="hardAlpha"/>
      <feOffset dy="16"/>
      <feGaussianBlur stdDeviation="22"/>
      <feComposite in2="hardAlpha" operator="out"/>
      <feColorMatrix type="matrix" values="0 0 0 0 0.0862745 0 0 0 0 0.133333 0 0 0 0 0.105882 0 0 0 0.16 0"/>
      <feBlend mode="normal" in2="BackgroundImageFix" result="effect1_dropShadow_1_1"/>
      <feBlend mode="normal" in="SourceGraphic" in2="effect1_dropShadow_1_1" result="shape"/>
    </filter>
  </defs>

  <rect width="1200" height="360" fill="#EEE4D5"/>
  <path d="M0 0H1200V360H0V0Z" fill="#F5EFE4"/>
  <circle cx="1072" cy="61" r="121" fill="#E9DDCC"/>
  <circle cx="137" cy="322" r="162" fill="#EFE1CF"/>

  <g opacity="0.5">
    <path d="M92 70H718" stroke="#D5C5B0"/>
    <path d="M92 118H718" stroke="#D5C5B0"/>
    <path d="M92 166H718" stroke="#D5C5B0"/>
    <path d="M92 214H718" stroke="#D5C5B0"/>
    <path d="M92 262H718" stroke="#D5C5B0"/>
    <path d="M182 34V292" stroke="#D5C5B0"/>
    <path d="M362 34V292" stroke="#D5C5B0"/>
    <path d="M542 34V292" stroke="#D5C5B0"/>
    <path d="M722 34V292" stroke="#D5C5B0"/>
  </g>

  <g filter="url(#shadow)">
    <rect x="130" y="56" width="940" height="232" rx="30" fill="url(#paperGlow)"/>
    <rect x="742" y="56" width="328" height="232" rx="30" fill="url(#panelGlow)"/>
  </g>

  <rect x="178" y="96" width="192" height="34" rx="17" fill="#16221B"/>
  <text x="207" y="118" fill="#F8F3E8" font-family="Arial, Helvetica, sans-serif" font-size="15" letter-spacing="1.5">GITHUB PROFILE</text>

  <text x="178" y="188" fill="#16221B" font-family="Georgia, 'Times New Roman', serif" font-size="72" font-weight="700">Lester</text>
  <text x="178" y="226" fill="#44524D" font-family="Arial, Helvetica, sans-serif" font-size="28">Building calm, operator-friendly AI systems.</text>

  <rect x="178" y="246" width="320" height="20" rx="10" fill="#E6D9C8"/>
  <rect x="178" y="246" width="198" height="20" rx="10" fill="#C66B38"/>

  <text x="786" y="115" fill="#F8F3E8" font-family="Arial, Helvetica, sans-serif" font-size="15" letter-spacing="1.8">CURRENT THEMES</text>

  <g>
    <circle cx="789" cy="152" r="6" fill="#F1A35B"/>
    <text x="810" y="158" fill="#F8F3E8" font-family="Arial, Helvetica, sans-serif" font-size="22">automation</text>
  </g>
  <g>
    <circle cx="789" cy="193" r="6" fill="#88D3B0"/>
    <text x="810" y="199" fill="#F8F3E8" font-family="Arial, Helvetica, sans-serif" font-size="22">agent tooling</text>
  </g>
  <g>
    <circle cx="789" cy="234" r="6" fill="#91BCFF"/>
    <text x="810" y="240" fill="#F8F3E8" font-family="Arial, Helvetica, sans-serif" font-size="22">product systems</text>
  </g>

  <path d="M742 257H1070" stroke="rgba(248,243,232,0.22)"/>
  <text x="786" y="278" fill="#D3CABB" font-family="Arial, Helvetica, sans-serif" font-size="14">Clear interfaces. Readable work.</text>
</svg>
